HIERARCHY
ROOT hip
{
  OFFSET 0 90.174 2.4664
  CHANNELS 6 Xposition Yposition Zposition Zrotation Xrotation Yrotation
  JOINT abdomen
  {
    OFFSET 0 -1.186 -1.5018
    CHANNELS 6 Xposition Yposition Zposition Zrotation Xrotation Yrotation
    JOINT abdomen2
    {
      OFFSET 0 9.964 0.2134
      CHANNELS 6 Xposition Yposition Zposition Zrotation Xrotation Yrotation
      JOINT chest
      {
        OFFSET 0 13.134 -3.2573
        CHANNELS 6 Xposition Yposition Zposition Zrotation Xrotation Yrotation
        JOINT neck
        {
          OFFSET 0 20.686 -1.6905
          CHANNELS 6 Xposition Yposition Zposition Zrotation Xrotation Yrotation
          JOINT head
          {
            OFFSET 0 7.238 -0.1237
            CHANNELS 6 Xposition Yposition Zposition Zrotation Xrotation Yrotation
            End Site
            {
              OFFSET 0 0 0
            }
          }
        }
        JOINT lCollar
        {
          OFFSET 1.7069 20.075 5.0056
          CHANNELS 6 Xposition Yposition Zposition Zrotation Xrotation Yrotation
          JOINT lShldr
          {
            OFFSET 13.6458 -0.047 -4.849
            CHANNELS 6 Xposition Yposition Zposition Zrotation Xrotation Yrotation
            JOINT lForeArm
            {
              OFFSET 28.3255 -0.9759 2.2888
              CHANNELS 6 Xposition Yposition Zposition Zrotation Xrotation Yrotation
              JOINT lHand
              {
                OFFSET 22.1583 -0.53 10.8316
                CHANNELS 6 Xposition Yposition Zposition Zrotation Xrotation Yrotation
                JOINT lThumb1
                {
                  OFFSET 0.786 0.112 2.5817
                  CHANNELS 6 Xposition Yposition Zposition Zrotation Xrotation Yrotation
                  JOINT lThumb2
                  {
                    OFFSET 0.3601 -0.878 4.2331
                    CHANNELS 6 Xposition Yposition Zposition Zrotation Xrotation Yrotation
                    JOINT lThumb2_End
                    {
                      OFFSET 1.8127 -1.216 2.2227
                      CHANNELS 6 Xposition Yposition Zposition Zrotation Xrotation Yrotation
                      End Site
                      {
                        OFFSET 0.0181 -0.0122 0.0222
                      }
                    }
                  }
                }
                JOINT lCarpal1
                {
                  OFFSET 0.9571 1.114 1.7695
                  CHANNELS 6 Xposition Yposition Zposition Zrotation Xrotation Yrotation
                  JOINT lIndex1
                  {
                    OFFSET 4.1246 0.487 4.1451
                    CHANNELS 6 Xposition Yposition Zposition Zrotation Xrotation Yrotation
                    JOINT lIndex2
                    {
                      OFFSET 3.4052 -1.454 2.7682
                      CHANNELS 6 Xposition Yposition Zposition Zrotation Xrotation Yrotation
                      JOINT lIndex2_End
                      {
                        OFFSET 1.4531 -1.795 1.2713
                        CHANNELS 6 Xposition Yposition Zposition Zrotation Xrotation Yrotation
                        End Site
                        {
                          OFFSET 0.0145 -0.0179 0.0127
                        }
                      }
                    }
                  }
                  JOINT lMid1
                  {
                    OFFSET 5.6954 0.21 2.1184
                    CHANNELS 6 Xposition Yposition Zposition Zrotation Xrotation Yrotation
                    JOINT lMid2
                    {
                      OFFSET 3.9766 -1.54 2.3863
                      CHANNELS 6 Xposition Yposition Zposition Zrotation Xrotation Yrotation
                      JOINT lMid2_End
                      {
                        OFFSET 1.4042 -1.926 1.125
                        CHANNELS 6 Xposition Yposition Zposition Zrotation Xrotation Yrotation
                        End Site
                        {
                          OFFSET 0.014 -0.0193 0.0113
                        }
                      }
                    }
                  }
                }
                JOINT lCarpal2
                {
                  OFFSET 2.0956 0.66 -0.3894
                  CHANNELS 6 Xposition Yposition Zposition Zrotation Xrotation Yrotation
                  JOINT lRing1
                  {
                    OFFSET 5.0395 -0.09 2.4971
                    CHANNELS 6 Xposition Yposition Zposition Zrotation Xrotation Yrotation
                    JOINT lRing2
                    {
                      OFFSET 3.7921 -1.552 1.4806
                      CHANNELS 6 Xposition Yposition Zposition Zrotation Xrotation Yrotation
                      JOINT lRing2_End
                      {
                        OFFSET 1.4655 -1.808 0.9609
                        CHANNELS 6 Xposition Yposition Zposition Zrotation Xrotation Yrotation
                        End Site
                        {
                          OFFSET 0.0147 -0.0181 0.0096
                        }
                      }
                    }
                  }
                  JOINT lPinky1
                  {
                    OFFSET 4.9141 -1.269 0.3591
                    CHANNELS 6 Xposition Yposition Zposition Zrotation Xrotation Yrotation
                    JOINT lPinky2
                    {
                      OFFSET 3.1477 -1.685 0.8462
                      CHANNELS 6 Xposition Yposition Zposition Zrotation Xrotation Yrotation
                      JOINT lPinky2_End
                      {
                        OFFSET 0.8055 -1.585 0.7955
                        CHANNELS 6 Xposition Yposition Zposition Zrotation Xrotation Yrotation
                        End Site
                        {
                          OFFSET 0.0081 -0.0158 0.008
                        }
                      }
                    }
                  }
                }
              }
            }
          }
        }
        JOINT rCollar
        {
          OFFSET -1.7069 20.075 5.0056
          CHANNELS 6 Xposition Yposition Zposition Zrotation Xrotation Yrotation
          JOINT rShldr
          {
            OFFSET -13.6458 -0.047 -4.849
            CHANNELS 6 Xposition Yposition Zposition Zrotation Xrotation Yrotation
            JOINT rForeArm
            {
              OFFSET -28.3255 -0.9759 2.2888
              CHANNELS 6 Xposition Yposition Zposition Zrotation Xrotation Yrotation
              JOINT rHand
              {
                OFFSET -22.1583 -0.53 10.8316
                CHANNELS 6 Xposition Yposition Zposition Zrotation Xrotation Yrotation
                JOINT rThumb1
                {
                  OFFSET -0.786 0.112 2.5817
                  CHANNELS 6 Xposition Yposition Zposition Zrotation Xrotation Yrotation
                  JOINT rThumb2
                  {
                    OFFSET -0.3601 -0.878 4.2331
                    CHANNELS 6 Xposition Yposition Zposition Zrotation Xrotation Yrotation
                    JOINT rThumb2_End
                    {
                      OFFSET -1.8127 -1.216 2.2227
                      CHANNELS 6 Xposition Yposition Zposition Zrotation Xrotation Yrotation
                      End Site
                      {
                        OFFSET -0.0181 -0.0122 0.0222
                      }
                    }
                  }
                }
                JOINT rCarpal1
                {
                  OFFSET -0.9571 1.114 1.7695
                  CHANNELS 6 Xposition Yposition Zposition Zrotation Xrotation Yrotation
                  JOINT rIndex1
                  {
                    OFFSET -4.1246 0.487 4.1451
                    CHANNELS 6 Xposition Yposition Zposition Zrotation Xrotation Yrotation
                    JOINT rIndex2
                    {
                      OFFSET -3.4052 -1.454 2.7682
                      CHANNELS 6 Xposition Yposition Zposition Zrotation Xrotation Yrotation
                      JOINT rIndex2_End
                      {
                        OFFSET -1.4531 -1.795 1.2713
                        CHANNELS 6 Xposition Yposition Zposition Zrotation Xrotation Yrotation
                        End Site
                        {
                          OFFSET -0.0145 -0.018 0.0127
                        }
                      }
                    }
                  }
                  JOINT rMid1
                  {
                    OFFSET -5.6954 0.21 2.1184
                    CHANNELS 6 Xposition Yposition Zposition Zrotation Xrotation Yrotation
                    JOINT rMid2
                    {
                      OFFSET -3.9766 -1.54 2.3863
                      CHANNELS 6 Xposition Yposition Zposition Zrotation Xrotation Yrotation
                      JOINT rMid2_End
                      {
                        OFFSET -1.4042 -1.926 1.125
                        CHANNELS 6 Xposition Yposition Zposition Zrotation Xrotation Yrotation
                        End Site
                        {
                          OFFSET -0.014 -0.0193 0.0113
                        }
                      }
                    }
                  }
                }
                JOINT rCarpal2
                {
                  OFFSET -2.0956 0.66 -0.3894
                  CHANNELS 6 Xposition Yposition Zposition Zrotation Xrotation Yrotation
                  JOINT rRing1
                  {
                    OFFSET -5.0395 -0.09 2.4971
                    CHANNELS 6 Xposition Yposition Zposition Zrotation Xrotation Yrotation
                    JOINT rRing2
                    {
                      OFFSET -3.7921 -1.552 1.4806
                      CHANNELS 6 Xposition Yposition Zposition Zrotation Xrotation Yrotation
                      JOINT rRing2_End
                      {
                        OFFSET -1.4655 -1.808 0.9609
                        CHANNELS 6 Xposition Yposition Zposition Zrotation Xrotation Yrotation
                        End Site
                        {
                          OFFSET -0.0147 -0.0181 0.0096
                        }
                      }
                    }
                  }
                  JOINT rPinky1
                  {
                    OFFSET -4.9141 -1.269 0.3592
                    CHANNELS 6 Xposition Yposition Zposition Zrotation Xrotation Yrotation
                    JOINT rPinky2
                    {
                      OFFSET -3.1477 -1.685 0.8462
                      CHANNELS 6 Xposition Yposition Zposition Zrotation Xrotation Yrotation
                      JOINT rPinky2_End
                      {
                        OFFSET -0.8055 -1.585 0.7955
                        CHANNELS 6 Xposition Yposition Zposition Zrotation Xrotation Yrotation
                        End Site
                        {
                          OFFSET -0.0081 -0.0158 0.008
                        }
                      }
                    }
                  }
                }
              }
            }
          }
        }
      }
    }
  }
  JOINT lThigh
  {
    OFFSET 8.367 -8.2066 0.5982
    CHANNELS 6 Xposition Yposition Zposition Zrotation Xrotation Yrotation
    JOINT lShin
    {
      OFFSET 2.1923 -43.463 -0.4932
      CHANNELS 6 Xposition Yposition Zposition Zrotation Xrotation Yrotation
      JOINT lFoot
      {
        OFFSET 0.7333 -45.8593 -2.6451
        CHANNELS 6 Xposition Yposition Zposition Zrotation Xrotation Yrotation
        End Site
        {
          OFFSET 2.6618 -4.2699 12.3931
        }
      }
    }
  }
  JOINT rThigh
  {
    OFFSET -8.367 -8.2066 0.5982
    CHANNELS 6 Xposition Yposition Zposition Zrotation Xrotation Yrotation
    JOINT rShin
    {
      OFFSET -2.1923 -43.463 -0.4931
      CHANNELS 6 Xposition Yposition Zposition Zrotation Xrotation Yrotation
      JOINT rFoot
      {
        OFFSET -0.7333 -45.8593 -2.6451
        CHANNELS 6 Xposition Yposition Zposition Zrotation Xrotation Yrotation
        End Site
        {
          OFFSET -2.6618 -4.2699 12.3931
        }
      }
    }
  }
}
MOTION
Frames:	4
Frame Time:	0.0333333
0 90.174 2.4664 0 0 -0 0 -1.186 -1.5018 0 0 -0 0 9.964 0.2134 0 0 -0 0 13.134 -3.2573 0 0 -0 0 20.686 -1.6905 0 0 -0 0 7.238 -0.1237 0 0 -0 1.7069 20.075 5.0056 0 0 -0 13.6458 -0.047 -4.849 1.66051 0.0835086 5.75766 28.3255 -0.9759 2.2888 -0.0175111 0.895433 15.7816 22.1583 -0.53 10.8316 7.95139e-016 -1.98785e-016 -0 0.786 0.112 2.5817 5.46658e-016 -3.97569e-016 -0 0.3601 -0.878 4.2331 5.96354e-016 0 -0 1.8127 -1.216 2.2227 3.97569e-016 1.98785e-016 9.54166e-015 0.9571 1.114 1.7695 1.49089e-016 -3.97569e-016 -0 4.1246 0.487 4.1451 6.4605e-016 0 3.18055e-015 3.4052 -1.454 2.7682 5.96354e-016 0 3.18055e-015 1.4531 -1.795 1.2713 8.94531e-016 -1.98785e-016 6.36111e-015 5.6954 0.21 2.1184 6.4605e-016 0 3.18055e-015 3.9766 -1.54 2.3863 5.96354e-016 0 3.18055e-015 1.4042 -1.926 1.125 8.94531e-016 -1.98785e-016 6.36111e-015 2.0956 0.66 -0.3894 1.49089e-016 -3.97569e-016 -0 5.0395 -0.09 2.4971 6.4605e-016 0 3.18055e-015 3.7921 -1.552 1.4806 5.96354e-016 0 3.18055e-015 1.4655 -1.808 0.9609 8.94531e-016 -1.98785e-016 6.36111e-015 4.9141 -1.269 0.3591 6.4605e-016 0 3.18055e-015 3.1477 -1.685 0.8462 5.96354e-016 0 3.18055e-015 0.8055 -1.585 0.7955 8.94531e-016 -1.98785e-016 6.36111e-015 -1.7069 20.075 5.0056 0 0 -0 -13.6458 -0.047 -4.849 -1.4496 0.0636048 -5.0245 -28.3255 -0.9759 2.2888 -1.74811 1.20616 -16.8394 -22.1583 -0.53 10.8316 -1.19271e-015 1.98785e-016 -3.18055e-015 -0.786 0.112 2.5817 -3.97569e-016 1.98785e-016 -3.18055e-015 -0.3601 -0.878 4.2331 -2.98177e-016 1.98785e-016 -3.18055e-015 -1.8127 -1.216 2.2227 -2.98177e-016 3.97569e-016 -0 -0.9571 1.114 1.7695 4.96962e-016 0 -6.36111e-015 -4.1246 0.487 4.1451 -9.93923e-017 3.97569e-016 -0 -3.4052 -1.454 2.7682 -8.94531e-016 5.96354e-016 -0 -1.4531 -1.795 1.2713 -3.97569e-016 3.97569e-016 -0 -5.6954 0.21 2.1184 -9.93923e-017 3.97569e-016 -0 -3.9766 -1.54 2.3863 -8.94531e-016 5.96354e-016 -0 -1.4042 -1.926 1.125 -3.97569e-016 3.97569e-016 -0 -2.0956 0.66 -0.3894 4.96962e-016 0 -6.36111e-015 -5.0395 -0.09 2.4971 -9.93923e-017 3.97569e-016 -0 -3.7921 -1.552 1.4806 -8.94531e-016 5.96354e-016 -0 -1.4655 -1.808 0.9609 -3.97569e-016 3.97569e-016 -0 -4.9141 -1.269 0.3592 -9.93923e-017 3.97569e-016 -0 -3.1477 -1.685 0.8462 -8.94531e-016 5.96354e-016 -0 -0.8055 -1.585 0.7955 -3.97569e-016 3.97569e-016 -0 8.367 -8.2066 0.5982 -4.66115 -1.03232 0.120763 2.1923 -43.463 -0.4932 0.00990601 1.55097 0.177175 0.7333 -45.8593 -2.6451 4.65196 -0.54114 -0.255042 -8.367 -8.2066 0.5982 4.66115 -1.03222 -0.120763 -2.1923 -43.463 -0.4931 -0.00990459 1.5509 -0.177176 -0.7333 -45.8593 -2.6451 -4.65196 -0.541171 0.255041 
0.7678 18.1613 5.06774 178.616 -73.0001 -1.01316 0 -1.186 -1.5018 -0.0687108 -4.94944 -0.290608 0 9.964 0.2134 -0.163649 -9.89831 -0.590522 0 13.134 -3.2573 -0.16365 -9.89832 -0.590523 0 20.686 -1.6905 0.0924687 0.215407 0.106484 2.22045e-016 7.238 -0.1237 -3.43912e-007 0.159115 -3.30844e-007 1.7069 20.075 5.0056 15.3751 -0.695551 -8.76716 13.6458 -0.047 -4.849 -16.7575 -17.1527 -27.6838 28.3255 -0.9759 2.2888 3.0783 6.90648 -38.8201 22.1583 -0.53 10.8316 58.2591 -18.0605 11.2453 0.786 0.112 2.5817 -1.07815e-006 -5.02701e-007 -2.57556e-006 0.3601 -0.878 4.2331 -1.56017e-006 -2.18548e-006 -2.20209e-007 1.8127 -1.216 2.2227 -1.87282e-006 -3.12658e-007 -2.29871e-008 0.9571 1.114 1.7695 1.59028e-015 0 -0 4.1246 0.487 4.1451 -1.07815e-006 -5.02701e-007 -2.57556e-006 3.4052 -1.454 2.7682 -1.56017e-006 -2.18548e-006 -2.20209e-007 1.4531 -1.795 1.2713 -1.87282e-006 -3.12658e-007 -2.29871e-008 5.6954 0.21 2.1184 -1.07815e-006 -5.02701e-007 -2.57556e-006 3.9766 -1.54 2.3863 -1.56017e-006 -2.18548e-006 -2.20209e-007 1.4042 -1.926 1.125 -1.87282e-006 -3.12658e-007 -2.29871e-008 2.0956 0.66 -0.3894 1.59028e-015 0 -0 5.0395 -0.09 2.4971 -1.07815e-006 -5.02701e-007 -2.57556e-006 3.7921 -1.552 1.4806 -1.56017e-006 -2.18548e-006 -2.20209e-007 1.4655 -1.808 0.9609 -1.87282e-006 -3.12658e-007 -2.29871e-008 4.9141 -1.269 0.3591 -1.07815e-006 -5.02701e-007 -2.57556e-006 3.1477 -1.685 0.8462 -1.56017e-006 -2.18548e-006 -2.20209e-007 0.8055 -1.585 0.7955 -1.87282e-006 -3.12658e-007 -2.29871e-008 -1.7069 20.075 5.0056 18.7136 -0.158841 -1.64147 -13.6458 -0.047 -4.849 7.86683 8.9418 41.19 -28.3255 -0.9759 2.2888 -12.8538 -15.2788 14.089 -22.1583 -0.53 10.8316 -58.2412 -18.1135 -11.7861 -0.786 0.112 2.5817 2.35891e-007 -1.05063e-006 -6.28558e-006 -0.3601 -0.878 4.2331 -1.59028e-015 1.59028e-015 1.27222e-014 -1.8127 -1.216 2.2227 -2.35891e-007 1.05063e-006 6.28558e-006 -0.9571 1.114 1.7695 1.59028e-015 -1.59028e-015 6.36111e-015 -4.1246 0.487 4.1451 2.35891e-007 -1.05063e-006 -6.28558e-006 -3.4052 -1.454 2.7682 -1.59028e-015 1.59028e-015 1.27222e-014 -1.4531 -1.795 1.2713 -2.35891e-007 1.05063e-006 6.28558e-006 -5.6954 0.21 2.1184 2.35891e-007 -1.05063e-006 -6.28558e-006 -3.9766 -1.54 2.3863 -1.59028e-015 1.59028e-015 1.27222e-014 -1.4042 -1.926 1.125 -2.35891e-007 1.05063e-006 6.28558e-006 -2.0956 0.66 -0.3894 1.59028e-015 -1.59028e-015 6.36111e-015 -5.0395 -0.09 2.4971 2.35891e-007 -1.05063e-006 -6.28558e-006 -3.7921 -1.552 1.4806 -1.59028e-015 1.59028e-015 1.27222e-014 -1.4655 -1.808 0.9609 -2.35891e-007 1.05063e-006 6.28558e-006 -4.9141 -1.269 0.3592 2.35891e-007 -1.05063e-006 -6.28558e-006 -3.1477 -1.685 0.8462 -1.59028e-015 1.59028e-015 1.27222e-014 -0.8055 -1.585 0.7955 -2.35891e-007 1.05063e-006 6.28558e-006 8.367 -8.2066 0.5982 22.5848 -54.7346 40.6713 2.1923 -43.463 -0.4932 -4.03717 38.3736 2.9175 0.7333 -45.8593 -2.6451 13.6303 56.474 -16.011 -8.367 -8.2066 0.5982 -23.3154 -55.0364 -41.6343 -2.1923 -43.463 -0.4931 3.84009 39.1812 -2.50885 -0.7333 -45.8593 -2.6451 -14.2202 57.2619 16.5391 
0.769883 18.0405 4.75272 178.553 -74.866 -1.0969 0 -1.186 -1.5018 -0.0718492 -4.78601 -0.289556 0 9.964 0.2134 -0.168959 -9.57161 -0.588255 2.22045e-016 13.134 -3.2573 -0.168959 -9.57159 -0.588255 0 20.686 -1.6905 0.132957 0.359819 0.0628868 0 7.238 -0.1237 1.2072e-007 0.0928583 9.15913e-008 1.7069 20.075 5.0056 14.7321 0.0965923 -9.81133 13.6458 -0.047 -4.849 -16.595 -17.2567 -27.4009 28.3255 -0.9759 2.2888 3.10156 6.93911 -37.7235 22.1583 -0.53 10.8316 58.1411 -18.2871 10.481 0.786 0.112 2.5817 1.59028e-015 -1.19271e-015 9.54166e-015 0.3601 -0.878 4.2331 -3.18055e-015 -1.19271e-015 9.54166e-015 1.8127 -1.216 2.2227 -3.18055e-015 -1.19271e-015 3.18055e-015 0.9571 1.114 1.7695 3.18055e-015 0 6.36111e-015 4.1246 0.487 4.1451 1.98626e-031 -1.19271e-015 9.54166e-015 3.4052 -1.454 2.7682 -3.18055e-015 -1.59028e-015 9.54166e-015 1.4531 -1.795 1.2713 2.20695e-032 -3.97569e-016 3.18055e-015 5.6954 0.21 2.1184 1.98626e-031 -1.19271e-015 9.54166e-015 3.9766 -1.54 2.3863 -3.18055e-015 -1.59028e-015 9.54166e-015 1.4042 -1.926 1.125 2.20695e-032 -3.97569e-016 3.18055e-015 2.0956 0.66 -0.3894 3.18055e-015 0 6.36111e-015 5.0395 -0.09 2.4971 1.98626e-031 -1.19271e-015 9.54166e-015 3.7921 -1.552 1.4806 -3.18055e-015 -1.59028e-015 9.54166e-015 1.4655 -1.808 0.9609 2.20695e-032 -3.97569e-016 3.18055e-015 4.9141 -1.269 0.3591 1.98626e-031 -1.19271e-015 9.54166e-015 3.1477 -1.685 0.8462 -3.18055e-015 -1.59028e-015 9.54166e-015 0.8055 -1.585 0.7955 2.20695e-032 -3.97569e-016 3.18055e-015 -1.7069 20.075 5.0056 19.2088 0.272633 -1.12094 -13.6458 -0.047 -4.849 7.78952 8.84678 40.6635 -28.3255 -0.9759 2.2888 -12.7954 -15.1923 13.4987 -22.1583 -0.53 10.8316 -58.0013 -18.0115 -11.2011 -0.786 0.112 2.5817 -1.59028e-015 0 1.27222e-014 -0.3601 -0.878 4.2331 8.05405e-007 -2.60471e-007 1.10837e-007 -1.8127 -1.216 2.2227 3.18055e-015 3.18055e-015 -1.27222e-014 -0.9571 1.114 1.7695 -1.59028e-015 0 -0 -4.1246 0.487 4.1451 -4.77083e-015 4.77083e-015 1.27222e-014 -3.4052 -1.454 2.7682 8.05405e-007 -2.60471e-007 1.10837e-007 -1.4531 -1.795 1.2713 -1.59028e-015 1.59028e-015 1.27222e-014 -5.6954 0.21 2.1184 -4.77083e-015 4.77083e-015 1.27222e-014 -3.9766 -1.54 2.3863 8.05405e-007 -2.60471e-007 1.10837e-007 -1.4042 -1.926 1.125 -1.59028e-015 1.59028e-015 1.27222e-014 -2.0956 0.66 -0.3894 -1.59028e-015 0 -0 -5.0395 -0.09 2.4971 -4.77083e-015 4.77083e-015 1.27222e-014 -3.7921 -1.552 1.4806 8.05405e-007 -2.60471e-007 1.10837e-007 -1.4655 -1.808 0.9609 -1.59028e-015 1.59028e-015 1.27222e-014 -4.9141 -1.269 0.3592 -4.77083e-015 4.77083e-015 1.27222e-014 -3.1477 -1.685 0.8462 8.05405e-007 -2.60471e-007 1.10837e-007 -0.8055 -1.585 0.7955 -1.59028e-015 1.59028e-015 1.27222e-014 8.367 -8.2066 0.5982 20.5069 -52.6273 38.0037 2.1923 -43.463 -0.4932 -4.04337 37.6121 2.89773 0.7333 -45.8593 -2.6451 12.428 56.6684 -14.8142 -8.367 -8.2066 0.5982 -21.2574 -53 -38.9234 -2.1923 -43.463 -0.4931 3.89602 38.5358 -2.52294 -0.7333 -45.8593 -2.6451 -12.9318 57.4084 15.2786 
0.771959 17.9228 4.44114 178.468 -76.74 -1.20172 -1.11022e-016 -1.186 -1.5018 -0.0749802 -4.62153 -0.288433 1.11022e-016 9.964 0.2134 -0.174244 -9.24255 -0.585831 -1.11022e-016 13.134 -3.2573 -0.174244 -9.24256 -0.58583 2.22045e-016 20.686 -1.6905 0.173559 0.504609 0.0191731 0 7.238 -0.1237 -1.0476e-007 0.0266243 2.00043e-007 1.7069 20.075 5.0056 14.1019 0.902326 -10.8494 13.6458 -0.047 -4.849 -16.4318 -17.3599 -27.1176 28.3255 -0.9759 2.2888 3.12421 6.97225 -36.6251 22.1583 -0.53 10.8316 58.0196 -18.5124 9.71474 0.786 0.112 2.5817 -4.98492e-007 6.87622e-007 7.3099e-008 0.3601 -0.878 4.2331 -2.00544e-006 -1.23796e-006 5.44229e-006 1.8127 -1.216 2.2227 -1.24354e-006 -6.83796e-008 -5.55967e-006 0.9571 1.114 1.7695 -1.59028e-015 0 -0 4.1246 0.487 4.1451 -4.98492e-007 6.87622e-007 7.3099e-008 3.4052 -1.454 2.7682 -2.00544e-006 -1.23796e-006 5.44229e-006 1.4531 -1.795 1.2713 -1.24354e-006 -6.83796e-008 -5.55967e-006 5.6954 0.21 2.1184 -4.98492e-007 6.87622e-007 7.3099e-008 3.9766 -1.54 2.3863 -2.00544e-006 -1.23796e-006 5.44229e-006 1.4042 -1.926 1.125 -1.24354e-006 -6.83796e-008 -5.55967e-006 2.0956 0.66 -0.3894 -1.59028e-015 0 -0 5.0395 -0.09 2.4971 -4.98492e-007 6.87622e-007 7.3099e-008 3.7921 -1.552 1.4806 -2.00544e-006 -1.23796e-006 5.44229e-006 1.4655 -1.808 0.9609 -1.24354e-006 -6.83796e-008 -5.55967e-006 4.9141 -1.269 0.3591 -4.98492e-007 6.87622e-007 7.3099e-008 3.1477 -1.685 0.8462 -2.00544e-006 -1.23796e-006 5.44229e-006 0.8055 -1.585 0.7955 -1.24354e-006 -6.83796e-008 -5.55967e-006 -1.7069 20.075 5.0056 19.7005 0.708912 -0.603679 -13.6458 -0.047 -4.849 7.71134 8.7524 40.1369 -28.3255 -0.9759 2.2888 -12.7362 -15.1063 12.9082 -22.1583 -0.53 10.8316 -57.7625 -17.9072 -10.6166 -0.786 0.112 2.5817 1.76556e-031 -1.59028e-015 6.36111e-015 -0.3601 -0.878 4.2331 0 0 -0 -1.8127 -1.216 2.2227 -8.05554e-007 2.60057e-007 -1.108e-007 -0.9571 1.114 1.7695 1.76556e-031 -1.59028e-015 6.36111e-015 -4.1246 0.487 4.1451 -1.59028e-015 1.59028e-015 6.36111e-015 -3.4052 -1.454 2.7682 3.18055e-015 -3.18055e-015 -0 -1.4531 -1.795 1.2713 -8.05554e-007 2.60057e-007 -1.108e-007 -5.6954 0.21 2.1184 -1.59028e-015 1.59028e-015 6.36111e-015 -3.9766 -1.54 2.3863 3.18055e-015 -3.18055e-015 -0 -1.4042 -1.926 1.125 -8.05554e-007 2.60057e-007 -1.108e-007 -2.0956 0.66 -0.3894 1.76556e-031 -1.59028e-015 6.36111e-015 -5.0395 -0.09 2.4971 -1.59028e-015 1.59028e-015 6.36111e-015 -3.7921 -1.552 1.4806 3.18055e-015 -3.18055e-015 -0 -1.4655 -1.808 0.9609 -8.05554e-007 2.60057e-007 -1.108e-007 -4.9141 -1.269 0.3592 -1.59028e-015 1.59028e-015 6.36111e-015 -3.1477 -1.685 0.8462 3.18055e-015 -3.18055e-015 -0 -0.8055 -1.585 0.7955 -8.05554e-007 2.60057e-007 -1.108e-007 8.367 -8.2066 0.5982 18.66 -50.4485 35.5558 2.1923 -43.463 -0.4932 -4.05009 36.8491 2.8781 0.7333 -45.8593 -2.6451 11.2119 56.8487 -13.6029 -8.367 -8.2066 0.5982 -19.4272 -50.893 -36.4283 -2.1923 -43.463 -0.4931 3.95131 37.8882 -2.53598 -0.7333 -45.8593 -2.6451 -11.632 57.5396 14.0061 
